<svg width="26" height="26" viewBox="0 0 26 26" fill="none" xmlns="http://www.w3.org/2000/svg">
<g clip-path="url(#clip0_29363_7796)">
<mask id="mask0_29363_7796" style="mask-type:luminance" maskUnits="userSpaceOnUse" x="0" y="0" width="26" height="26">
<path d="M26 0H0V26H26V0Z" fill="white"/>
</mask>
<g mask="url(#mask0_29363_7796)">
<path d="M0 12.4583C0 6.5858 0 3.64867 1.82433 1.82433C3.64867 0 6.58667 0 12.4583 0H13.5417C19.4142 0 22.3513 0 24.1757 1.82433C26 3.64867 26 6.58667 26 12.4583V13.5417C26 19.4142 26 22.3513 24.1757 24.1757C22.3513 26 19.4133 26 13.5417 26H12.4583C6.5858 26 3.64867 26 1.82433 24.1757C0 22.3513 0 19.4133 0 13.5417V12.4583Z" fill="#2787F5"/>
<path fill-rule="evenodd" clip-rule="evenodd" d="M7.04166 8.125H5.14625C4.60458 8.125 4.49625 8.3798 4.49625 8.66147C4.49625 9.16327 5.13845 11.6541 7.48886 14.9474C9.05492 17.1973 11.2623 18.4167 13.2704 18.4167C14.4759 18.4167 14.625 18.1454 14.625 17.68V15.9796C14.625 15.4379 14.7394 15.3296 15.1207 15.3296C15.4024 15.3296 15.8834 15.47 17.0092 16.5542C18.2945 17.8403 18.5059 18.4167 19.2287 18.4167H21.125C21.6667 18.4167 21.9379 18.1454 21.7811 17.6107C21.6103 17.0785 20.9967 16.3055 20.1821 15.3894C19.7401 14.8677 19.0779 14.3052 18.8769 14.0235C18.5952 13.6621 18.6758 13.5018 18.8769 13.1803C18.8769 13.1803 21.1865 9.9268 21.4275 8.8218C21.5488 8.42053 21.4275 8.125 20.8537 8.125H18.9583C18.4765 8.125 18.2537 8.3798 18.1333 8.66147C18.1333 8.66147 17.1695 11.011 15.8037 12.5372C15.3617 12.9792 15.1606 13.1205 14.9197 13.1205C14.7992 13.1205 14.625 12.9792 14.625 12.5779V8.8218C14.625 8.33993 14.4855 8.125 14.0833 8.125H11.1037C10.803 8.125 10.6219 8.3486 10.6219 8.56093C10.6219 9.01767 11.3048 9.1234 11.375 10.4087V13.2002C11.375 13.8129 11.2649 13.9239 11.0231 13.9239C10.3809 13.9239 8.81746 11.5631 7.89012 8.86253C7.70812 8.33733 7.52612 8.125 7.04166 8.125Z" fill="white"/>
</g>
</g>
<defs>
<clipPath id="clip0_29363_7796">
<rect width="26" height="26" fill="white"/>
</clipPath>
</defs>
</svg>
