<svg width="25" height="24" viewBox="0 0 25 24" fill="none" xmlns="http://www.w3.org/2000/svg">
<g clip-path="url(#clip0_29350_2838)">
<path d="M24.266 12.2764C24.266 11.4607 24.1999 10.6406 24.0588 9.83807H12.74V14.4591H19.2217C18.9528 15.9494 18.0885 17.2678 16.823 18.1056V21.1039H20.69C22.9609 19.0139 24.266 15.9274 24.266 12.2764Z" fill="#4285F4"/>
<path d="M12.74 24.0008C15.9764 24.0008 18.7058 22.9382 20.6944 21.1039L16.8274 18.1055C15.7516 18.8375 14.3626 19.252 12.7444 19.252C9.61378 19.252 6.95936 17.1399 6.00694 14.3003H2.01649V17.3912C4.05361 21.4434 8.20279 24.0008 12.74 24.0008Z" fill="#34A853"/>
<path d="M6.00254 14.3003C5.49988 12.8099 5.49988 11.1961 6.00254 9.70575V6.61481H2.01651C0.314505 10.0056 0.314505 14.0004 2.01651 17.3912L6.00254 14.3003Z" fill="#FBBC04"/>
<path d="M12.74 4.74966C14.4508 4.7232 16.1043 5.36697 17.3433 6.54867L20.7694 3.12262C18.6 1.0855 15.7207 -0.034466 12.74 0.000808666C8.20279 0.000808666 4.05361 2.55822 2.01649 6.61481L6.00253 9.70575C6.95054 6.86173 9.60937 4.74966 12.74 4.74966Z" fill="#EA4335"/>
</g>
<defs>
<clipPath id="clip0_29350_2838">
<rect width="24" height="24" fill="white" transform="translate(0.5)"/>
</clipPath>
</defs>
</svg>
