<svg width="20" height="20" viewBox="0 0 20 20" fill="none" xmlns="http://www.w3.org/2000/svg">
<path d="M15.0167 10.275L14 9.25829C13.7583 9.04996 13.6167 8.74163 13.6083 8.39996C13.5917 8.02496 13.7417 7.64996 14.0167 7.37496L15.0167 6.37496C15.8833 5.50829 16.2083 4.67496 15.9333 4.01663C15.6667 3.36663 14.8417 3.00829 13.625 3.00829H4.91667V2.29163C4.91667 1.94996 4.63334 1.66663 4.29167 1.66663C3.95001 1.66663 3.66667 1.94996 3.66667 2.29163V17.7083C3.66667 18.05 3.95001 18.3333 4.29167 18.3333C4.63334 18.3333 4.91667 18.05 4.91667 17.7083V13.6416H13.625C14.825 13.6416 15.6333 13.275 15.9083 12.6166C16.1833 11.9583 15.8667 11.1333 15.0167 10.275Z" fill="#24A19C"/>
</svg>
