<svg width="20" height="20" viewBox="0 0 20 20" fill="none" xmlns="http://www.w3.org/2000/svg">
<path d="M17.75 10.1917H14.85C14.0333 10.1917 13.3083 10.6417 12.9417 11.375L12.2417 12.7583C12.075 13.0917 11.7417 13.3 11.375 13.3H8.64166C8.38332 13.3 8.01666 13.2417 7.77499 12.7583L7.07499 11.3833C6.70832 10.6583 5.97499 10.2 5.16666 10.2H2.24999C1.92499 10.2 1.66666 10.4583 1.66666 10.7833V13.5C1.66666 16.525 3.48332 18.3333 6.51666 18.3333H13.5C16.3583 18.3333 18.1167 16.7667 18.3333 13.9833V10.775C18.3333 10.4583 18.075 10.1917 17.75 10.1917Z" fill="#A0AAB8"/>
<path d="M10.625 1.66663C10.625 1.32496 10.3417 1.04163 10 1.04163C9.65833 1.04163 9.375 1.32496 9.375 1.66663V3.33329H10.625V1.66663Z" fill="#A0AAB8"/>
<path d="M18.3333 8.17504V9.04171C18.15 8.97504 17.95 8.94171 17.75 8.94171H14.85C13.5583 8.94171 12.4 9.65837 11.825 10.8084L11.2 12.0417H8.81666L8.19166 10.8167C7.61666 9.65837 6.45832 8.94171 5.16666 8.94171H2.24999C2.04999 8.94171 1.84999 8.97504 1.66666 9.04171V8.17504C1.66666 5.14171 3.47499 3.33337 6.50832 3.33337H9.37499V5.99171L8.77499 5.39171C8.53332 5.15004 8.13332 5.15004 7.89166 5.39171C7.64999 5.63337 7.64999 6.03337 7.89166 6.27504L9.55832 7.94171C9.56666 7.95004 9.57499 7.95004 9.57499 7.95837C9.63332 8.00837 9.69166 8.05004 9.75832 8.07504C9.84166 8.10837 9.91666 8.12504 9.99999 8.12504C10.0833 8.12504 10.1583 8.10837 10.2333 8.07504C10.3083 8.05004 10.3833 8.00004 10.4417 7.94171L12.1083 6.27504C12.35 6.03337 12.35 5.63337 12.1083 5.39171C11.8667 5.15004 11.4667 5.15004 11.225 5.39171L10.625 5.99171V3.33337H13.4917C16.525 3.33337 18.3333 5.14171 18.3333 8.17504Z" fill="#A0AAB8"/>
</svg>
